<?xml version="1.0" encoding="UTF-8"?>
<!-- Generator: visioncortex VTracer 0.6.12 -->
<svg version="1.1" xmlns="http://www.w3.org/2000/svg" width="1024" height="1024">
<path d="M0 0 C337.92 0 675.84 0 1024 0 C1024 337.92 1024 675.84 1024 1024 C686.08 1024 348.16 1024 0 1024 C0 686.08 0 348.16 0 0 Z M172 67 C169.03 67.99 166.06 68.98 163 70 C118.07395711 93.74140478 75.93042224 135.49907508 60.43359375 185.00390625 C60.19705078 185.82826172 60.19705078 185.82826172 59 190 C57.35207148 194.94378556 55.69553888 199.88484012 54 204.8125 C44.92544935 237.42416638 46.71030356 272.34645575 46.74121094 305.86230469 C46.73849773 310.80722607 46.73493495 315.75214704 46.73059082 320.69706726 C46.72150482 334.07054741 46.72499521 347.44399656 46.73134899 360.81747723 C46.73642747 374.83846302 46.73171251 388.85944623 46.72857666 402.88043213 C46.72494289 426.41752599 46.72972119 449.95460727 46.73925781 473.49169922 C46.75014625 500.67864321 46.74661153 527.86555722 46.735605 555.05250049 C46.72652142 578.42808881 46.72525195 601.80366812 46.73048234 625.17925763 C46.73359548 639.12612986 46.73402927 653.072988 46.72740936 667.01985931 C46.72162081 680.12970187 46.72566057 693.23950585 46.73719788 706.34934425 C46.73983615 711.15241494 46.73909365 715.95548889 46.73467255 720.75855827 C46.72918303 727.32945908 46.73609279 733.90023731 46.74603271 740.47113037 C46.74157127 742.3578366 46.73710983 744.24454282 46.73251319 746.18842196 C46.91888372 809.99182878 70.31425214 864.82174728 114.3125 910.5625 C149.48371262 944.41890093 194.88220324 963.54010306 243 969 C245.64 969.33 248.28 969.66 251 970 C257.84977545 970.10173293 264.68946078 970.14780773 271.53933716 970.14717102 C272.59593676 970.14900936 272.59593676 970.14900936 277.94297111 970.1583125 C285.04808344 970.1693552 292.15318115 970.17319427 299.25830078 970.17700195 C304.34374539 970.18326635 309.42918953 970.18991312 314.51463318 970.19691467 C331.24152304 970.21796693 347.968413 970.22832073 364.6953125 970.23828125 C370.45610433 970.2423289 376.21689611 970.24644582 381.97768784 970.25063133 C409.05254692 970.2696885 436.12740327 970.28391633 463.20226777 970.2922433 C494.43133962 970.30200674 525.66034042 970.32830107 556.88938725 970.36874419 C581.03843817 970.39894204 605.18746877 970.41371583 629.3365382 970.41702431 C643.75290571 970.41937132 658.16919737 970.42828636 672.58554459 970.45348549 C686.16305475 970.47683379 699.74043949 970.48097186 713.31796455 970.47072411 C718.28495133 970.47023023 723.25194442 970.47650655 728.21891212 970.49028015 C798.74104365 970.67479893 860.52070747 957.24613114 913 907 C952.78810545 867.21189455 976.05144116 812.9067488 976.13374341 756.55884796 C976.13151268 754.61063312 976.12928196 752.66241828 976.12698364 750.65516663 C976.12854363 748.5750427 976.13010362 746.49491878 976.13171089 744.3517608 C976.13570705 737.36478976 976.13253646 730.37784036 976.12939453 723.39086914 C976.13074925 718.38745613 976.13252959 713.38404322 976.13470459 708.38063049 C976.13927246 694.77241118 976.13749147 681.16419942 976.1343255 667.55597997 C976.13179621 653.31168805 976.13414126 639.0673968 976.13571167 624.82310486 C976.1375327 600.88182458 976.13512984 576.94054739 976.13037109 552.99926758 C976.12493916 525.3526545 976.12668362 497.7060488 976.1321975 470.0594359 C976.13674313 446.31467026 976.13737176 422.56990683 976.13475883 398.82514089 C976.13320268 384.64816157 976.13298394 370.47118572 976.13629532 356.29420662 C976.1391947 342.94736704 976.13716042 329.60053691 976.13140106 316.25369835 C976.13008408 311.3672754 976.13044945 306.48085164 976.13266373 301.59442902 C976.16301754 227.77387527 968.41724279 164.38546709 914.25 108.8125 C906.00057899 100.70289969 897.3563739 93.79799041 888 87 C887.175 86.3915625 887.175 86.3915625 883 83.3125 C832.10821251 49.59669079 778.11956826 45.37185194 718.90014648 45.49829102 C713.81113028 45.49450126 708.72211511 45.48899584 703.63310242 45.48191833 C689.90243367 45.46803565 676.17189123 45.47908181 662.44122958 45.49562955 C648.03064818 45.50954672 633.62007362 45.50301265 619.20948792 45.49949646 C595.02660095 45.49680039 570.84376379 45.51022083 546.66088867 45.53344727 C518.73878259 45.5600801 490.8167596 45.56179313 462.89464515 45.5500589 C435.97199472 45.53926673 409.04937421 45.54547781 382.12672615 45.55961418 C370.69472607 45.56535871 359.262748 45.56530342 347.8307476 45.56054878 C334.36701359 45.55576385 320.90337019 45.56594394 307.4396534 45.58750343 C302.51044648 45.59304974 297.58123081 45.59355654 292.65202332 45.58855057 C285.9030023 45.58255775 279.15425465 45.59518056 272.40525818 45.61231995 C271.43982069 45.60931492 271.43982069 45.60931492 266.55412191 45.59410769 C236.28426463 45.73304386 197.78622531 49.80918313 172 67 Z " fill="#FDFDFD" transform="translate(0,0)"/>
<path d="M0 0 C13.2694801 31.47471075 23.28771014 62.15719101 28 96 C28.54007882 99.45858166 29.08173624 102.91691719 29.625 106.375 C38.95567285 171.68970995 25.23562872 236.47920958 -14.3125 289.625 C-20.7476781 297.904266 -27.72176203 305.45219766 -35 313 C-35.7425 313.78375 -35.7425 313.78375 -39.5 317.75 C-76.31919171 352.52368106 -125.48255125 373.63199459 -176 376 C-177.61390625 376.07734375 -179.2278125 376.1546875 -180.890625 376.234375 C-228.54641023 377.48481834 -268.10236575 356.05777984 -302.0625 324.1875 C-317 308.3015873 -317 308.3015873 -317 303 C-315.39253906 302.55269531 -313.78507812 302.10539062 -312.12890625 301.64453125 C-299.725296 298.18391661 -287.34802953 294.65501674 -275 291 C-273.90236328 290.69320312 -273.90236328 290.69320312 -268.34765625 289.140625 C-219.45151833 274.89549816 -172.24290099 251.24290099 -136 215 C-133.69 212.69 -131.38 210.38 -129 208 C-123.66016305 199.45626087 -123.24725486 196.69159365 -124 187 C-127.13581966 179.68308746 -129.47581173 175.27892206 -136.6875 171.625 C-146.03801117 168.76484364 -151.35374366 169.67687183 -160 174 C-163.52568778 177.46099626 -167.04657034 180.92803088 -170.4921875 184.46875 C-183.46549026 197.52873407 -199.12825367 207.83826025 -215 217 C-216.41152344 217.825 -217.82304687 218.65 -219.27734375 219.5 C-229.84236872 225.552975 -240.66403313 230.54906822 -252 235 C-253.8665625 235.7425 -255.733125 236.485 -257.65625 237.25 C-271.88958452 242.76448562 -286.25875425 247.07175779 -301 251 C-307.48322663 252.8443662 -313.96291664 254.69975245 -320.4375 256.57421875 C-322.355625 257.12722656 -324.27375 257.68023438 -326.25 258.25 C-328.04953125 258.77078125 -329.8490625 259.2915625 -331.703125 259.828125 C-336 261 -336 261 -338 261 C-349.31118864 224.4957094 -344.72975175 186.87512604 -327.73828125 152.91796875 C-319.25063101 137.67410049 -308.45590045 124.14316756 -295 113 C-293.47375 111.72125 -291.9475 110.4425 -290.375 109.125 C-257.49619797 83.892431 -220.06442902 76.46035663 -180.25 69.25 C-177.10726562 68.67378906 -173.96453125 68.09757812 -170.7265625 67.50390625 C-160.48499523 65.62788902 -150.24330264 63.75293579 -139.99145508 61.93383789 C-127.52996744 59.60245172 -115.27630484 56.14385728 -103 53 C-101.22238281 52.55269531 -99.44476562 52.10539062 -97.61328125 51.64453125 C-64.65544982 42.99937045 -31.63438219 26.69252021 -6.3125 3.875 C-2 0 -2 0 0 0 Z " fill="#48C873" transform="translate(677,289)"/>
<path d="M0 0 C10.36543764 5.71886215 15.7974953 14.04533459 20.875 24.5 C21.7309375 26.25183594 22.586875 28.00367188 23.46875 29.80859375 C23.88640625 30.66517578 23.88640625 30.66517578 26 35 C27.44375 37.825625 28.8875 40.65125 30.375 43.5625 C33.35262294 49.67176085 35.76106 55.60302856 38 62 C38.66 63.32 38.66 63.32 42 70 C43.35715507 74.32593177 44.68970419 78.65964512 46 83 C46.6084375 84.42957031 47.216875 85.85914063 47.84375 87.33203125 C69.50303801 144.26613796 72.21310374 210.71280595 61 270 C60.46375 272.84625 59.9275 275.6925 59.375 278.625 C47.94835934 323.73016049 26.69406085 364.83627207 -5 399 C-6.175625 400.36125 -7.35125 401.7225 -8.5625 403.125 C-15.76582941 411.24511678 -23.51948226 418.23464315 -32 425 C-33.52625 426.258125 -35.0525 427.51625 -36.625 428.8125 C-68.81227148 453.88863011 -104.98520031 471.59867958 -145 480 C-146.96839844 480.41378906 -148.93679688 480.82757812 -150.96484375 481.25390625 C-209.36170949 491.6702521 -268.24138501 479.77012836 -317 446 C-336.84160051 431.11879962 -353.63614029 414.14671232 -368 394 C-389.33346797 411.77788998 -397.66454063 439.77164149 -403 466 C-403.185625 468.454375 -403.37125 470.90875 -403.5625 473.4375 C-404.06721815 479.85463074 -405.52420912 483.60143118 -409 489 C-418.74529124 496.30896843 -419.79590424 497 -432 497 C-440 494 -440 494 -447 488 C-456.53789873 466.53972785 -448.8564447 438.29182783 -440.75 417.125 C-440.29625 416.114375 -440.29625 416.114375 -438 411 C-437.4328125 409.6903125 -437.4328125 409.6903125 -434.5625 403.0625 C-426.86199262 386.89288469 -416.57937601 372.71914685 -404 360 C-403.2471875 359.2265625 -403.2471875 359.2265625 -399.4375 355.3125 C-396 352 -396 352 -393 350 C-394 342 -394 342 -395.890625 335.859375 C-411.25187228 285.90687459 -402.65783923 235.52341792 -379 190 C-370.31438659 175.30126962 -359.78947013 162.29654411 -348 150 C-346.618125 148.515 -345.23625 147.03 -343.8125 145.5 C-328.4429477 131.12847057 -310.92534731 120.09012745 -292 111 C-290.02 109.989375 -288.04 108.97875 -286 107.9375 C-262.94407824 98.26224712 -237.58350549 93.08303466 -213 89 C-203.43046418 87.28810783 -193.87192609 85.51736849 -184.3125 83.75 C-181.76208984 83.28464844 -179.21167969 82.81929688 -176.58398438 82.33984375 C-154.27156124 78.20854582 -132.4254296 73.53237759 -111 66 C-108.03 65.01 -105.06 64.02 -102 63 C-73.13392856 50.65870859 -47.9276678 34.79676404 -27.3125 10.6875 C-18.49166726 0.86808242 -12.59606309 -0.90782437 0 0 Z M-14 63 C-15.155 64.155 -15.155 64.155 -21 70 C-51.81106483 94.43636176 -87.9115437 109.89709849 -126 119 C-127.77246094 119.44085938 -129.54492188 119.88171875 -131.37109375 120.3359375 C-148.1969705 124.46421953 -165.21142633 127.51383925 -182.26171875 130.55078125 C-184.78376953 131.00259766 -187.30582031 131.45441406 -189.90429688 131.91992188 C-195.07214802 132.84455873 -200.24141974 133.76129247 -205.41210938 134.66992188 C-245.90349782 141.96724832 -281.12878458 152.5659858 -312 181 C-313.299375 182.051875 -314.59875 183.10375 -315.9375 184.1875 C-339.1981281 206.01670483 -353.64676094 239.36200818 -356 271 C-357.12637363 309.74725275 -357.12637363 309.74725275 -350 324 C-338.7990235 321.47978029 -327.93572481 318.48323087 -317 315 C-312.94025831 313.80310404 -308.87755746 312.61621555 -304.8125 311.4375 C-303.78125 311.13714844 -303.78125 311.13714844 -298.5625 309.6171875 C-294.47977012 308.43021406 -290.3963346 307.24566703 -286.3125 306.0625 C-244.90292158 292.53263775 -208.61229912 271.96296177 -177 242 C-168.73220806 234.40256957 -165.80441083 233 -154 233 C-145.77530279 235.44782655 -143.86901638 237.15281422 -138 244 C-135.71101979 250.86694062 -135.46084491 255.78880061 -136 263 C-159.80336403 308.28444864 -229.26300382 336.21409532 -275 351 C-281.85698331 352.89051291 -288.73385141 354.65243709 -295.63671875 356.3671875 C-304.21537042 358.56846215 -312.57421932 361.27587542 -321 364 C-323.64 364.66 -326.28 365.32 -329 366 C-324.15950593 385.36197627 -296.42116421 404.64756512 -280.625 414.6875 C-251.34013925 431.25024911 -221.92684794 440.60262933 -188 439 C-185.421875 438.896875 -182.84375 438.79375 -180.1875 438.6875 C-123.03374086 433.22061869 -70.85885879 405.41246872 -33.5625 361.8125 C9.08670388 307.47858273 25.96778553 244.89309151 18.625 176.10546875 C18.521875 175.26306641 18.521875 175.26306641 18 171 C17.79375 169.30488281 17.5875 167.60976563 17.375 165.86328125 C12.56791842 129.67360457 2.08600862 96.58585686 -12 63 C-12.66 63 -13.32 63 -14 63 Z " fill="#FAFBFA" transform="translate(689,226)"/>
<path d="M0 0 C0.66 0.33 1.32 0.66 2 1 C1.35482422 1.639375 1.35482422 1.639375 -1.91015625 4.875 C-2.76029297 5.720625 -2.76029297 5.720625 -7.0625 10 C-8.74472656 11.670625 -10.42695312 13.34125 -12.16015625 15.0625 C-16.27598969 19.26138092 -20.15464431 23.55689625 -24 28 C-25.65 29.65 -27.3 31.3 -29 33 C-26.77885076 27.4471269 -24.24079672 24.74267387 -20.125 20.4375 C-18.78566406 19.03371094 -17.44632813 17.62992188 -16.06640625 16.18359375 C-10.76715522 10.73162655 -5.4094007 5.34261797 0 0 Z " fill="#A2E57D" transform="translate(120,99)"/>
<path d="M0 0 C0.66 0 1.32 0 2 0 C-0.19182959 5.47957399 -3.0458966 8.67977591 -7 13 C-7.66 12.67 -8.32 12.34 -9 12 C-6.05413921 7.95996235 -3.0525393 3.96005099 0 0 Z " fill="#4AB984" transform="translate(705,598)"/>
<path d="M0 0 C0.99 0.99 1.98 1.98 3 3 C1.68 3.33 0.36 3.66 -1 4 C-2.98 6.31 -4.96 8.62 -7 11 C-7.66 10.67 -8.32 10.34 -9 10 C-6.03 6.7 -3.06 3.4 0 0 Z " fill="#5DC285" transform="translate(320,619)"/>
<path d="M0 0 C0.66 0.33 1.32 0.66 2 1 C-0.31 3.64 -2.62 6.28 -5 9 C-5.66 8.67 -6.32 8.34 -7 8 C-4.69 5.36 -2.38 2.72 0 0 Z " fill="#4DBF8A" transform="translate(692,615)"/>
</svg>
